<svg xmlns="http://www.w3.org/2000/svg" viewBox="0 0 64 64" role="img" aria-label="RecipeNet">
  <defs>
    <linearGradient id="bg" x1="8" y1="6" x2="56" y2="58" gradientUnits="userSpaceOnUse">
      <stop offset="0" stop-color="#7c3aed"/>
      <stop offset="1" stop-color="#06b6d4"/>
    </linearGradient>
  </defs>
  <rect x="3" y="3" width="58" height="58" rx="16" fill="url(#bg)"/>
  <g fill="#fff">
    <rect x="17" y="14" width="6" height="38" rx="3"/>
    <rect x="14" y="12" width="3" height="12" rx="1.5"/>
    <rect x="17.5" y="12" width="3" height="12" rx="1.5"/>
    <rect x="21" y="12" width="3" height="12" rx="1.5"/>
    <rect x="24.5" y="12" width="3" height="12" rx="1.5"/>

    <path d="M39.5 12c6 2.5 9.5 8 9.5 14.5V52a3 3 0 0 1-3 3h-4.5V12z" opacity="0.95"/>
    <path d="M35 12h4.5v43H35a2.5 2.5 0 0 1-2.5-2.5V14.5A2.5 2.5 0 0 1 35 12z"/>
  </g>
</svg>
